<mxfile host="app.diagrams.net" agent="Mozilla/5.0 (Windows NT 10.0; Win64; x64) AppleWebKit/537.36 (KHTML, like Gecko) Chrome/135.0.0.0 Safari/537.36" version="26.2.10">
  <diagram id="C5RBs43oDa-KdzZeNtuy" name="Page-1">
    <mxGraphModel dx="874" dy="479" grid="1" gridSize="10" guides="1" tooltips="1" connect="1" arrows="1" fold="1" page="1" pageScale="1" pageWidth="827" pageHeight="1169" math="0" shadow="0">
      <root>
        <mxCell id="WIyWlLk6GJQsqaUBKTNV-0" />
        <mxCell id="WIyWlLk6GJQsqaUBKTNV-1" parent="WIyWlLk6GJQsqaUBKTNV-0" />
        <mxCell id="WIyWlLk6GJQsqaUBKTNV-2" value="" style="rounded=0;html=1;jettySize=auto;orthogonalLoop=1;fontSize=11;endArrow=block;endFill=0;endSize=8;strokeWidth=1;shadow=0;labelBackgroundColor=none;edgeStyle=orthogonalEdgeStyle;" parent="WIyWlLk6GJQsqaUBKTNV-1" edge="1">
          <mxGeometry relative="1" as="geometry">
            <mxPoint x="360" y="120" as="sourcePoint" />
            <mxPoint x="360" y="170" as="targetPoint" />
          </mxGeometry>
        </mxCell>
        <mxCell id="FobLBzlZU4DvhAlSByZs-1" value="" style="rounded=0;html=1;jettySize=auto;orthogonalLoop=1;fontSize=11;endArrow=block;endFill=0;endSize=8;strokeWidth=1;shadow=0;labelBackgroundColor=none;edgeStyle=orthogonalEdgeStyle;" edge="1" parent="WIyWlLk6GJQsqaUBKTNV-1">
          <mxGeometry relative="1" as="geometry">
            <mxPoint x="359.5" y="250" as="sourcePoint" />
            <mxPoint x="360" y="300" as="targetPoint" />
          </mxGeometry>
        </mxCell>
        <mxCell id="FobLBzlZU4DvhAlSByZs-4" value="" style="strokeWidth=2;html=1;shape=mxgraph.flowchart.start_1;whiteSpace=wrap;" vertex="1" parent="WIyWlLk6GJQsqaUBKTNV-1">
          <mxGeometry x="275" y="60" width="170" height="60" as="geometry" />
        </mxCell>
        <mxCell id="FobLBzlZU4DvhAlSByZs-5" value="&lt;font style=&quot;font-size: 36px;&quot;&gt;Inicio&lt;/font&gt;" style="text;html=1;align=center;verticalAlign=middle;whiteSpace=wrap;rounded=0;" vertex="1" parent="WIyWlLk6GJQsqaUBKTNV-1">
          <mxGeometry x="320" y="65" width="80" height="50" as="geometry" />
        </mxCell>
        <mxCell id="FobLBzlZU4DvhAlSByZs-6" value="" style="shape=hexagon;perimeter=hexagonPerimeter2;whiteSpace=wrap;html=1;fixedSize=1;" vertex="1" parent="WIyWlLk6GJQsqaUBKTNV-1">
          <mxGeometry x="230" y="170" width="260" height="80" as="geometry" />
        </mxCell>
        <mxCell id="FobLBzlZU4DvhAlSByZs-9" value="&lt;font style=&quot;font-size: 24px;&quot;&gt;num1 = 0, num2 = 0&lt;/font&gt;" style="text;html=1;align=center;verticalAlign=middle;resizable=0;points=[];autosize=1;strokeColor=none;fillColor=none;" vertex="1" parent="WIyWlLk6GJQsqaUBKTNV-1">
          <mxGeometry x="240" y="190" width="240" height="40" as="geometry" />
        </mxCell>
        <mxCell id="FobLBzlZU4DvhAlSByZs-10" value="" style="shape=manualInput;whiteSpace=wrap;html=1;" vertex="1" parent="WIyWlLk6GJQsqaUBKTNV-1">
          <mxGeometry x="302.5" y="300" width="115" height="70" as="geometry" />
        </mxCell>
        <mxCell id="FobLBzlZU4DvhAlSByZs-11" value="&lt;font style=&quot;font-size: 24px;&quot;&gt;num1&lt;/font&gt;" style="text;html=1;align=center;verticalAlign=middle;resizable=0;points=[];autosize=1;strokeColor=none;fillColor=none;" vertex="1" parent="WIyWlLk6GJQsqaUBKTNV-1">
          <mxGeometry x="320" y="320" width="80" height="40" as="geometry" />
        </mxCell>
        <mxCell id="FobLBzlZU4DvhAlSByZs-12" value="" style="rounded=0;html=1;jettySize=auto;orthogonalLoop=1;fontSize=11;endArrow=block;endFill=0;endSize=8;strokeWidth=1;shadow=0;labelBackgroundColor=none;edgeStyle=orthogonalEdgeStyle;" edge="1" parent="WIyWlLk6GJQsqaUBKTNV-1">
          <mxGeometry relative="1" as="geometry">
            <mxPoint x="359.5" y="370" as="sourcePoint" />
            <mxPoint x="360" y="420" as="targetPoint" />
          </mxGeometry>
        </mxCell>
        <mxCell id="FobLBzlZU4DvhAlSByZs-13" value="" style="shape=manualInput;whiteSpace=wrap;html=1;" vertex="1" parent="WIyWlLk6GJQsqaUBKTNV-1">
          <mxGeometry x="300" y="420" width="120" height="70" as="geometry" />
        </mxCell>
        <mxCell id="FobLBzlZU4DvhAlSByZs-14" value="&lt;font style=&quot;font-size: 24px;&quot;&gt;num2&lt;/font&gt;" style="text;html=1;align=center;verticalAlign=middle;resizable=0;points=[];autosize=1;strokeColor=none;fillColor=none;" vertex="1" parent="WIyWlLk6GJQsqaUBKTNV-1">
          <mxGeometry x="320" y="440" width="80" height="40" as="geometry" />
        </mxCell>
        <mxCell id="FobLBzlZU4DvhAlSByZs-15" value="" style="rounded=0;html=1;jettySize=auto;orthogonalLoop=1;fontSize=11;endArrow=block;endFill=0;endSize=8;strokeWidth=1;shadow=0;labelBackgroundColor=none;edgeStyle=orthogonalEdgeStyle;" edge="1" parent="WIyWlLk6GJQsqaUBKTNV-1">
          <mxGeometry relative="1" as="geometry">
            <mxPoint x="359.5" y="490" as="sourcePoint" />
            <mxPoint x="360" y="540" as="targetPoint" />
          </mxGeometry>
        </mxCell>
        <mxCell id="FobLBzlZU4DvhAlSByZs-17" value="" style="rhombus;whiteSpace=wrap;html=1;" vertex="1" parent="WIyWlLk6GJQsqaUBKTNV-1">
          <mxGeometry x="220" y="540" width="280" height="100" as="geometry" />
        </mxCell>
        <mxCell id="FobLBzlZU4DvhAlSByZs-18" value="&lt;font style=&quot;font-size: 24px;&quot;&gt;num1 &amp;gt; num2&lt;/font&gt;" style="text;html=1;align=center;verticalAlign=middle;resizable=0;points=[];autosize=1;strokeColor=none;fillColor=none;" vertex="1" parent="WIyWlLk6GJQsqaUBKTNV-1">
          <mxGeometry x="275" y="570" width="170" height="40" as="geometry" />
        </mxCell>
        <mxCell id="FobLBzlZU4DvhAlSByZs-19" value="" style="rounded=0;html=1;jettySize=auto;orthogonalLoop=1;fontSize=11;endArrow=block;endFill=0;endSize=8;strokeWidth=1;shadow=0;labelBackgroundColor=none;edgeStyle=orthogonalEdgeStyle;" edge="1" parent="WIyWlLk6GJQsqaUBKTNV-1">
          <mxGeometry relative="1" as="geometry">
            <mxPoint x="499" y="590" as="sourcePoint" />
            <mxPoint x="610" y="650" as="targetPoint" />
          </mxGeometry>
        </mxCell>
        <mxCell id="FobLBzlZU4DvhAlSByZs-20" value="" style="rounded=0;whiteSpace=wrap;html=1;" vertex="1" parent="WIyWlLk6GJQsqaUBKTNV-1">
          <mxGeometry x="510" y="650" width="200" height="60" as="geometry" />
        </mxCell>
        <mxCell id="FobLBzlZU4DvhAlSByZs-21" value="&lt;font style=&quot;font-size: 18px;&quot;&gt;num1, &quot;es mayor.&quot;&lt;/font&gt;" style="text;html=1;align=center;verticalAlign=middle;resizable=0;points=[];autosize=1;strokeColor=none;fillColor=none;" vertex="1" parent="WIyWlLk6GJQsqaUBKTNV-1">
          <mxGeometry x="525" y="660" width="170" height="40" as="geometry" />
        </mxCell>
        <mxCell id="FobLBzlZU4DvhAlSByZs-22" value="" style="rounded=0;html=1;jettySize=auto;orthogonalLoop=1;fontSize=11;endArrow=block;endFill=0;endSize=8;strokeWidth=1;shadow=0;labelBackgroundColor=none;edgeStyle=orthogonalEdgeStyle;" edge="1" parent="WIyWlLk6GJQsqaUBKTNV-1">
          <mxGeometry relative="1" as="geometry">
            <mxPoint x="220" y="590" as="sourcePoint" />
            <mxPoint x="150" y="650" as="targetPoint" />
          </mxGeometry>
        </mxCell>
        <mxCell id="FobLBzlZU4DvhAlSByZs-23" value="" style="rounded=0;whiteSpace=wrap;html=1;" vertex="1" parent="WIyWlLk6GJQsqaUBKTNV-1">
          <mxGeometry x="55" y="650" width="220" height="60" as="geometry" />
        </mxCell>
        <mxCell id="FobLBzlZU4DvhAlSByZs-26" value="&lt;font style=&quot;font-size: 18px;&quot;&gt;num2, &quot;es mayor.&quot;&lt;/font&gt;" style="text;html=1;align=center;verticalAlign=middle;resizable=0;points=[];autosize=1;strokeColor=none;fillColor=none;" vertex="1" parent="WIyWlLk6GJQsqaUBKTNV-1">
          <mxGeometry x="80" y="660" width="170" height="40" as="geometry" />
        </mxCell>
        <mxCell id="FobLBzlZU4DvhAlSByZs-27" value="" style="rounded=0;html=1;jettySize=auto;orthogonalLoop=1;fontSize=11;endArrow=block;endFill=0;endSize=8;strokeWidth=1;shadow=0;labelBackgroundColor=none;edgeStyle=orthogonalEdgeStyle;" edge="1" parent="WIyWlLk6GJQsqaUBKTNV-1">
          <mxGeometry relative="1" as="geometry">
            <mxPoint x="150" y="710" as="sourcePoint" />
            <mxPoint x="150.5" y="760" as="targetPoint" />
          </mxGeometry>
        </mxCell>
        <mxCell id="FobLBzlZU4DvhAlSByZs-28" value="" style="rounded=0;html=1;jettySize=auto;orthogonalLoop=1;fontSize=11;endArrow=block;endFill=0;endSize=8;strokeWidth=1;shadow=0;labelBackgroundColor=none;edgeStyle=orthogonalEdgeStyle;" edge="1" parent="WIyWlLk6GJQsqaUBKTNV-1">
          <mxGeometry relative="1" as="geometry">
            <mxPoint x="609.5" y="710" as="sourcePoint" />
            <mxPoint x="610" y="760" as="targetPoint" />
          </mxGeometry>
        </mxCell>
        <mxCell id="FobLBzlZU4DvhAlSByZs-29" value="" style="endArrow=none;html=1;rounded=0;" edge="1" parent="WIyWlLk6GJQsqaUBKTNV-1">
          <mxGeometry width="50" height="50" relative="1" as="geometry">
            <mxPoint x="150" y="760" as="sourcePoint" />
            <mxPoint x="610" y="760" as="targetPoint" />
          </mxGeometry>
        </mxCell>
        <mxCell id="FobLBzlZU4DvhAlSByZs-30" value="" style="rounded=0;html=1;jettySize=auto;orthogonalLoop=1;fontSize=11;endArrow=block;endFill=0;endSize=8;strokeWidth=1;shadow=0;labelBackgroundColor=none;edgeStyle=orthogonalEdgeStyle;" edge="1" parent="WIyWlLk6GJQsqaUBKTNV-1" target="FobLBzlZU4DvhAlSByZs-31">
          <mxGeometry relative="1" as="geometry">
            <mxPoint x="359.5" y="760" as="sourcePoint" />
            <mxPoint x="360" y="810" as="targetPoint" />
          </mxGeometry>
        </mxCell>
        <mxCell id="FobLBzlZU4DvhAlSByZs-31" value="" style="strokeWidth=2;html=1;shape=mxgraph.flowchart.terminator;whiteSpace=wrap;" vertex="1" parent="WIyWlLk6GJQsqaUBKTNV-1">
          <mxGeometry x="295" y="780" width="130" height="50" as="geometry" />
        </mxCell>
        <mxCell id="FobLBzlZU4DvhAlSByZs-32" value="&lt;font style=&quot;font-size: 36px;&quot;&gt;Fin&lt;/font&gt;" style="text;html=1;align=center;verticalAlign=middle;resizable=0;points=[];autosize=1;strokeColor=none;fillColor=none;" vertex="1" parent="WIyWlLk6GJQsqaUBKTNV-1">
          <mxGeometry x="325" y="775" width="70" height="60" as="geometry" />
        </mxCell>
      </root>
    </mxGraphModel>
  </diagram>
</mxfile>
